<svg xmlns="http://www.w3.org/2000/svg" viewBox="0 0 35 35">
    <path d="M19.8023846,13.7111538 L22.0437692,15.0580769 L19.2865317,19.6534728 C19.4959852,20.029472 19.6153846,20.4622373 19.6153846,20.9224231 C19.6153846,22.3648077 18.4423846,23.5378077 17,23.5378077 C15.5576154,23.5378077 14.3846154,22.3648077 14.3846154,20.9224231 C14.3846154,19.4800385 15.5576154,18.3070385 17,18.3070385 C17.0149054,18.3070385 17.0297821,18.3071637 17.044629,18.3074133 L19.8023846,13.7111538 Z M28.7025597,25.4286405 C27.4615385,24.8461538 27.4615385,24.8461538 26.3609633,24.2636672 C27.0809129,22.8165686 27.4611462,21.2406017 27.4611462,19.6153846 C27.4611462,13.8370647 22.7779276,9.15384615 16.9996077,9.15384615 C11.2221213,9.15384615 6.53806923,13.8375388 6.53806923,19.6153846 C6.53806923,21.2391793 6.91888033,22.8151015 7.63955975,24.2636672 C6.53846154,24.8461538 6.53846154,24.8461538 5.29796333,25.4286405 C4.39964336,23.6230174 3.92268462,21.6492043 3.92268462,19.6153846 C3.92268462,12.3930568 9.77772922,6.53846154 16.9996077,6.53846154 C24.2223647,6.53846154 30.0765308,12.3926276 30.0765308,19.6153846 C30.0765308,21.6502951 29.600283,23.6242168 28.7025597,25.4286405 Z" fill="white"></path>
</svg>